<svg xmlns="http://www.w3.org/2000/svg" xmlns:xlink="http://www.w3.org/1999/xlink" preserveAspectRatio="xMidYMid" width="221" height="184" viewBox="0 0 221 184">
  <defs>
    <style>
      .cls-3 {
        fill: #000000;
      }
    </style>
  </defs>
  <g id="four">
    <path d="M111.594,100.000 C111.594,100.000 195.376,100.099 195.376,100.099 C195.376,100.099 195.376,183.961 195.376,183.961 C195.376,183.961 219.912,183.961 219.912,183.961 C219.912,183.961 219.594,-0.000 219.594,-0.000 C219.594,-0.000 195.594,-0.000 195.594,-0.000 C195.594,-0.000 195.594,79.000 195.594,79.000 C195.594,79.000 111.594,79.000 111.594,79.000 C111.594,79.000 111.594,100.000 111.594,100.000 Z" id="path-1" class="cls-3" fill-rule="evenodd"/>
    <path d="M102.594,0.000 C102.594,0.000 78.594,0.000 78.594,0.000 C78.594,0.000 78.856,119.232 78.856,119.232 C78.856,134.369 77.632,144.665 75.187,150.116 C71.189,158.987 62.707,163.422 49.741,163.422 C40.524,163.422 33.734,160.961 29.370,156.037 C25.006,151.114 22.826,143.769 22.826,134.003 C22.826,134.003 22.826,121.186 22.826,121.186 C22.826,121.186 -0.001,121.186 -0.001,121.186 C-0.001,121.186 -0.001,134.003 -0.001,134.003 C-0.001,152.640 4.765,165.600 14.298,172.882 C23.831,180.165 35.319,183.808 48.762,183.808 C72.064,183.808 87.871,176.159 96.183,160.858 C100.663,152.478 102.904,140.717 102.904,125.580 C102.904,125.580 102.594,0.000 102.594,0.000 Z" id="path-2" class="cls-3" fill-rule="evenodd"/>
  </g>
</svg>
